<?xml version="1.0" encoding="UTF-8"?>
<svg xmlns="http://www.w3.org/2000/svg" width="48" height="48" viewBox="0 0 48 48" shape-rendering="crispEdges">
  <defs>
    <linearGradient id="outer" x1="0" y1="0" x2="0" y2="1">
      <stop offset="0" stop-color="#d9d9d9"/>
      <stop offset="1" stop-color="#9a9a9a"/>
    </linearGradient>
    <linearGradient id="panel" x1="0" y1="0" x2="0" y2="1">
      <stop offset="0" stop-color="#cccccc"/>
      <stop offset="1" stop-color="#b4b4b4"/>
    </linearGradient>
  </defs>
  <rect x="0" y="0" width="48" height="48" rx="5" fill="url(#outer)"/>
  <path d="M5 1H43Q47 1 47 5V43Q47 47 43 47H5Q1 47 1 43V5Q1 1 5 1Z" fill="none" stroke="#f2f2f2" stroke-width="1"/>
  <path d="M5 47H43Q47 47 47 43V5" fill="none" stroke="#737373" stroke-width="1"/>

  <rect x="2" y="2" width="44" height="44" fill="#787878"/>
  <rect x="3" y="3" width="42" height="42" fill="url(#panel)" stroke="#333333"/>
  <path d="M4 4H43V43" fill="none" stroke="#eeeeee"/>

  <rect x="4" y="5" width="40" height="4" fill="#bfbfbf" stroke="#7b7b7b"/>
  

  <rect x="6" y="10" width="36" height="20" fill="#1f1f1f"/>
  <rect x="7" y="11" width="34" height="18" fill="#2d2d2d"/>
  <rect x="8" y="12" width="2" height="2" fill="#FF0000"/>
  <rect x="10" y="12" width="2" height="2" fill="#FFFF00"/>
  <rect x="12" y="12" width="2" height="2" fill="#00FF00"/>
  <rect x="14" y="12" width="2" height="2" fill="#00FFFF"/>
  <rect x="16" y="12" width="2" height="2" fill="#0000FF"/>
  <rect x="18" y="12" width="2" height="2" fill="#FF00FF"/>
  <rect x="20" y="12" width="2" height="2" fill="#FFFFFF"/>
  <rect x="22" y="12" width="2" height="2" fill="#E6E6E6"/>
  <rect x="24" y="12" width="2" height="2" fill="#DADAD9"/>
  <rect x="26" y="12" width="2" height="2" fill="#CDCDCD"/>
  <rect x="28" y="12" width="2" height="2" fill="#C0C0C0"/>
  <rect x="30" y="12" width="2" height="2" fill="#B4B4B4"/>
  <rect x="32" y="12" width="2" height="2" fill="#A7A7A7"/>
  <rect x="34" y="12" width="2" height="2" fill="#9A9A9A"/>
  <rect x="36" y="12" width="2" height="2" fill="#8D8D8D"/>
  <rect x="38" y="12" width="2" height="2" fill="#818181"/>
  <rect x="8" y="14" width="2" height="2" fill="#EE1D24"/>
  <rect x="10" y="14" width="2" height="2" fill="#FFF100"/>
  <rect x="12" y="14" width="2" height="2" fill="#00A650"/>
  <rect x="14" y="14" width="2" height="2" fill="#00AEEF"/>
  <rect x="16" y="14" width="2" height="2" fill="#2F3192"/>
  <rect x="18" y="14" width="2" height="2" fill="#ED008C"/>
  <rect x="20" y="14" width="2" height="2" fill="#747474"/>
  <rect x="22" y="14" width="2" height="2" fill="#666666"/>
  <rect x="24" y="14" width="2" height="2" fill="#595959"/>
  <rect x="26" y="14" width="2" height="2" fill="#4B4B4B"/>
  <rect x="28" y="14" width="2" height="2" fill="#3E3E3E"/>
  <rect x="30" y="14" width="2" height="2" fill="#332F2E"/>
  <rect x="32" y="14" width="2" height="2" fill="#212121"/>
  <rect x="34" y="14" width="2" height="2" fill="#131313"/>
  <rect x="36" y="14" width="2" height="2" fill="#000000"/>
  <rect x="38" y="14" width="2" height="2" fill="#000000"/>
  <rect x="8" y="16" width="2" height="2" fill="#F7977A"/>
  <rect x="10" y="16" width="2" height="2" fill="#FBAD82"/>
  <rect x="12" y="16" width="2" height="2" fill="#FDC68C"/>
  <rect x="14" y="16" width="2" height="2" fill="#FFF799"/>
  <rect x="16" y="16" width="2" height="2" fill="#C6DF9C"/>
  <rect x="18" y="16" width="2" height="2" fill="#A4D49D"/>
  <rect x="20" y="16" width="2" height="2" fill="#81CA9D"/>
  <rect x="22" y="16" width="2" height="2" fill="#7BCCC9"/>
  <rect x="24" y="16" width="2" height="2" fill="#6DCFF7"/>
  <rect x="26" y="16" width="2" height="2" fill="#7CA6D8"/>
  <rect x="28" y="16" width="2" height="2" fill="#8293CA"/>
  <rect x="30" y="16" width="2" height="2" fill="#8881BE"/>
  <rect x="32" y="16" width="2" height="2" fill="#A286BD"/>
  <rect x="34" y="16" width="2" height="2" fill="#BC8CBF"/>
  <rect x="36" y="16" width="2" height="2" fill="#F49BC1"/>
  <rect x="38" y="16" width="2" height="2" fill="#F5999D"/>
  <rect x="8" y="18" width="2" height="2" fill="#F06C4D"/>
  <rect x="10" y="18" width="2" height="2" fill="#F68E54"/>
  <rect x="12" y="18" width="2" height="2" fill="#FBAF5A"/>
  <rect x="14" y="18" width="2" height="2" fill="#FFF467"/>
  <rect x="16" y="18" width="2" height="2" fill="#ACD372"/>
  <rect x="18" y="18" width="2" height="2" fill="#7DC473"/>
  <rect x="20" y="18" width="2" height="2" fill="#39B778"/>
  <rect x="22" y="18" width="2" height="2" fill="#16BCB4"/>
  <rect x="24" y="18" width="2" height="2" fill="#00BFF3"/>
  <rect x="26" y="18" width="2" height="2" fill="#448CCB"/>
  <rect x="28" y="18" width="2" height="2" fill="#5373B8"/>
  <rect x="30" y="18" width="2" height="2" fill="#5E5CA7"/>
  <rect x="32" y="18" width="2" height="2" fill="#855FA8"/>
  <rect x="34" y="18" width="2" height="2" fill="#A763A9"/>
  <rect x="36" y="18" width="2" height="2" fill="#EF6EA8"/>
  <rect x="38" y="18" width="2" height="2" fill="#F16D7E"/>
  <rect x="8" y="20" width="2" height="2" fill="#EE1D24"/>
  <rect x="10" y="20" width="2" height="2" fill="#F16522"/>
  <rect x="12" y="20" width="2" height="2" fill="#F7941D"/>
  <rect x="14" y="20" width="2" height="2" fill="#FFF100"/>
  <rect x="16" y="20" width="2" height="2" fill="#8FC63D"/>
  <rect x="18" y="20" width="2" height="2" fill="#37B44A"/>
  <rect x="20" y="20" width="2" height="2" fill="#00A650"/>
  <rect x="22" y="20" width="2" height="2" fill="#00A99E"/>
  <rect x="24" y="20" width="2" height="2" fill="#00AEEF"/>
  <rect x="26" y="20" width="2" height="2" fill="#0072BD"/>
  <rect x="28" y="20" width="2" height="2" fill="#0054A5"/>
  <rect x="30" y="20" width="2" height="2" fill="#2F3192"/>
  <rect x="32" y="20" width="2" height="2" fill="#652C91"/>
  <rect x="34" y="20" width="2" height="2" fill="#91278F"/>
  <rect x="36" y="20" width="2" height="2" fill="#ED008C"/>
  <rect x="38" y="20" width="2" height="2" fill="#EE105A"/>
  <rect x="8" y="22" width="2" height="2" fill="#9D0A0F"/>
  <rect x="10" y="22" width="2" height="2" fill="#A1410D"/>
  <rect x="12" y="22" width="2" height="2" fill="#A36209"/>
  <rect x="14" y="22" width="2" height="2" fill="#ABA000"/>
  <rect x="16" y="22" width="2" height="2" fill="#588528"/>
  <rect x="18" y="22" width="2" height="2" fill="#197B30"/>
  <rect x="20" y="22" width="2" height="2" fill="#007236"/>
  <rect x="22" y="22" width="2" height="2" fill="#00736A"/>
  <rect x="24" y="22" width="2" height="2" fill="#0076A4"/>
  <rect x="26" y="22" width="2" height="2" fill="#004A80"/>
  <rect x="28" y="22" width="2" height="2" fill="#003469"/>
  <rect x="30" y="22" width="2" height="2" fill="#160E67"/>
  <rect x="32" y="22" width="2" height="2" fill="#460968"/>
  <rect x="34" y="22" width="2" height="2" fill="#62055F"/>
  <rect x="36" y="22" width="2" height="2" fill="#9D005C"/>
  <rect x="38" y="22" width="2" height="2" fill="#9D0039"/>
  <rect x="8" y="24" width="2" height="2" fill="#780000"/>
  <rect x="10" y="24" width="2" height="2" fill="#7B3000"/>
  <rect x="12" y="24" width="2" height="2" fill="#7C4900"/>
  <rect x="14" y="24" width="2" height="2" fill="#847A00"/>
  <rect x="16" y="24" width="2" height="2" fill="#3E6617"/>
  <rect x="18" y="24" width="2" height="2" fill="#025C22"/>
  <rect x="20" y="24" width="2" height="2" fill="#025C22"/>
  <rect x="22" y="24" width="2" height="2" fill="#005951"/>
  <rect x="24" y="24" width="2" height="2" fill="#005B7E"/>
  <rect x="26" y="24" width="2" height="2" fill="#003469"/>
  <rect x="28" y="24" width="2" height="2" fill="#002056"/>
  <rect x="30" y="24" width="2" height="2" fill="#09004A"/>
  <rect x="32" y="24" width="2" height="2" fill="#30004A"/>
  <rect x="34" y="24" width="2" height="2" fill="#4B0048"/>
  <rect x="36" y="24" width="2" height="2" fill="#790045"/>
  <rect x="38" y="24" width="2" height="2" fill="#7A0026"/>
  <rect x="8" y="26" width="2" height="2" fill="#C7B198"/>
  <rect x="10" y="26" width="2" height="2" fill="#9A8575"/>
  <rect x="12" y="26" width="2" height="2" fill="#726357"/>
  <rect x="14" y="26" width="2" height="2" fill="#534841"/>
  <rect x="16" y="26" width="2" height="2" fill="#332F2E"/>
  <rect x="18" y="26" width="2" height="2" fill="#C79C6D"/>
  <rect x="20" y="26" width="2" height="2" fill="#A77C50"/>
  <rect x="22" y="26" width="2" height="2" fill="#8C623A"/>
  <rect x="24" y="26" width="2" height="2" fill="#744B24"/>
  <rect x="26" y="26" width="2" height="2" fill="#613813"/>
  

  <rect x="8" y="32" width="32" height="4" fill="#707070" stroke="#333333"/>
  <path d="M9 33H38" stroke="#969696"/>
</svg>
